<svg width="3840" height="1080" viewBox="0 0 3840 1080" fill="none" xmlns="http://www.w3.org/2000/svg">
<rect width="3840" height="1080" fill="#FAECEC"/>
<path d="M1477.29 767V577.249C1477.29 556.034 1472.23 539.577 1462.12 527.878C1452.21 515.982 1438.43 510.034 1420.78 510.034C1409.48 510.034 1399.66 512.71 1391.34 518.064C1383.01 523.219 1376.47 530.555 1371.71 540.073C1367.15 549.392 1364.87 560.198 1364.87 572.491L1330.96 549.887C1330.96 527.878 1336.12 508.447 1346.43 491.594C1356.94 474.74 1370.91 461.654 1388.36 452.335C1406.01 442.818 1425.54 438.059 1446.95 438.059C1483.63 438.059 1511.29 448.964 1529.93 470.775C1548.77 492.387 1558.19 520.741 1558.19 555.835V767H1477.29ZM1090.05 767V445.792H1161.43V552.266H1171.55V767H1090.05ZM1283.97 767V577.249C1283.97 556.034 1278.91 539.577 1268.8 527.878C1258.89 515.982 1245.11 510.034 1227.46 510.034C1210.61 510.034 1197.03 515.883 1186.71 527.581C1176.6 539.081 1171.55 554.051 1171.55 572.491L1137.64 548.698C1137.64 527.68 1142.9 508.844 1153.4 492.189C1163.91 475.533 1177.99 462.348 1195.64 452.633C1213.48 442.917 1233.41 438.059 1255.42 438.059C1280.6 438.059 1301.22 443.413 1317.28 454.12C1333.54 464.827 1345.53 479.102 1353.27 496.947C1361 514.792 1364.87 534.422 1364.87 555.835V767H1283.97ZM1614.7 401.18V329.8H1695.6V401.18H1614.7ZM1614.7 767V445.792H1695.6V767H1614.7ZM1976.89 767V615.318C1976.89 607.982 1976.5 598.663 1975.71 587.361C1974.91 575.861 1972.43 564.361 1968.27 552.861C1964.11 541.361 1957.27 531.745 1947.75 524.012C1938.43 516.279 1925.14 512.413 1907.89 512.413C1900.95 512.413 1893.52 513.503 1885.59 515.684C1877.66 517.866 1870.22 522.128 1863.28 528.473C1856.34 534.62 1850.59 543.741 1846.03 555.835C1841.67 567.93 1839.49 583.991 1839.49 604.017L1793.09 582.008C1793.09 556.629 1798.25 532.835 1808.56 510.628C1818.87 488.421 1834.33 470.477 1854.95 456.796C1875.77 443.115 1901.95 436.275 1933.47 436.275C1958.65 436.275 1979.17 440.538 1995.04 449.064C2010.9 457.589 2023.19 468.396 2031.92 481.482C2040.84 494.568 2047.18 508.249 2050.95 522.525C2054.72 536.603 2057 549.491 2057.79 561.189C2058.58 572.887 2058.98 581.413 2058.98 586.767V767H1976.89ZM1757.4 767V445.792H1829.38V552.266H1839.49V767H1757.4ZM2252.88 775.922C2219.97 775.922 2190.92 768.884 2165.74 754.806C2140.76 740.53 2121.13 721 2106.85 696.215C2092.77 671.232 2085.73 642.681 2085.73 610.56C2085.73 575.465 2092.67 544.93 2106.55 518.956C2120.43 492.982 2139.57 472.857 2163.95 458.581C2188.34 444.107 2216.4 436.87 2248.12 436.87C2281.83 436.87 2310.48 444.801 2334.08 460.663C2357.67 476.525 2375.12 498.831 2386.42 527.581C2397.72 556.331 2401.69 590.137 2398.32 629H2318.31V599.258C2318.31 566.542 2313.06 543.047 2302.55 528.771C2292.24 514.297 2275.29 507.059 2251.69 507.059C2224.13 507.059 2203.81 515.486 2190.72 532.34C2177.83 548.995 2171.39 573.68 2171.39 606.396C2171.39 636.336 2177.83 659.534 2190.72 675.991C2203.81 692.25 2222.94 700.379 2248.12 700.379C2263.99 700.379 2277.57 696.909 2288.87 689.97C2300.17 683.03 2308.8 673.017 2314.74 659.931L2395.64 683.129C2383.55 712.474 2364.41 735.276 2338.24 751.534C2312.27 767.793 2283.81 775.922 2252.88 775.922ZM2146.41 629V568.922H2359.36V629H2146.41ZM2513.93 767L2397.35 445.792H2478.24L2554.38 668.258L2630.52 445.792H2711.42L2594.83 767H2513.93ZM2876.08 775.922C2843.17 775.922 2814.12 768.884 2788.94 754.806C2763.96 740.53 2744.33 721 2730.05 696.215C2715.97 671.232 2708.93 642.681 2708.93 610.56C2708.93 575.465 2715.87 544.93 2729.75 518.956C2743.63 492.982 2762.77 472.857 2787.15 458.581C2811.54 444.107 2839.6 436.87 2871.32 436.87C2905.03 436.87 2933.68 444.801 2957.28 460.663C2980.87 476.525 2998.32 498.831 3009.62 527.581C3020.92 556.331 3024.89 590.137 3021.52 629H2941.51V599.258C2941.51 566.542 2936.26 543.047 2925.75 528.771C2915.44 514.297 2898.49 507.059 2874.89 507.059C2847.33 507.059 2827.01 515.486 2813.92 532.34C2801.03 548.995 2794.59 573.68 2794.59 606.396C2794.59 636.336 2801.03 659.534 2813.92 675.991C2827.01 692.25 2846.14 700.379 2871.32 700.379C2887.19 700.379 2900.77 696.909 2912.07 689.97C2923.37 683.03 2932 673.017 2937.94 659.931L3018.84 683.129C3006.75 712.474 2987.61 735.276 2961.44 751.534C2935.47 767.793 2907.01 775.922 2876.08 775.922ZM2769.61 629V568.922H2982.56V629H2769.61ZM3061.91 767V445.792H3133.29V524.31L3125.55 514.197C3129.72 503.094 3135.27 492.982 3142.21 483.861C3149.15 474.74 3157.67 467.206 3167.79 461.258C3175.52 456.499 3183.94 452.831 3193.07 450.253C3202.19 447.477 3211.6 445.792 3221.32 445.197C3231.04 444.404 3240.75 444.602 3250.47 445.792V521.335C3241.54 518.559 3231.13 517.667 3219.24 518.659C3207.54 519.452 3196.93 522.128 3187.41 526.689C3177.9 531.051 3169.87 536.9 3163.32 544.236C3156.78 551.374 3151.82 559.9 3148.45 569.814C3145.08 579.53 3143.4 590.534 3143.4 602.827V767H3061.91Z" fill="#D47070"/>
<path d="M573 339H1001.28V767.28H573V339Z" fill="#58525B"/>
<path d="M626.535 392.535H947.745V660.21H626.535V392.535Z" fill="#2D343E"/>
<path d="M947.745 713.745H1001.28V767.28H947.745V713.745Z" fill="#D47070"/>
<path d="M573 713.745H733.605V767.28H573L573 713.745Z" fill="#68616C"/>
<path d="M787.14 713.745H840.675V767.28H787.14V713.745Z" fill="#68616C"/>
<path d="M840.675 499.605H894.21V553.14H840.675V499.605Z" fill="#57F870"/>
<path d="M680.07 499.605H733.605V553.14H680.07V499.605Z" fill="#57F870"/>
</svg>
