<svg width="3840" height="1080" viewBox="0 0 3840 1080" fill="none" xmlns="http://www.w3.org/2000/svg">
<rect width="3840" height="1080" fill="#FAECEC"/>
<path d="M1472.01 770V578.6C1472.01 557.2 1466.91 540.6 1456.71 528.8C1446.71 516.8 1432.81 510.8 1415.01 510.8C1403.61 510.8 1393.71 513.5 1385.31 518.9C1376.91 524.1 1370.31 531.5 1365.51 541.1C1360.91 550.5 1358.61 561.4 1358.61 573.8L1324.41 551C1324.41 528.8 1329.61 509.2 1340.01 492.2C1350.61 475.2 1364.71 462 1382.31 452.6C1400.11 443 1419.81 438.2 1441.41 438.2C1478.41 438.2 1506.31 449.2 1525.11 471.2C1544.11 493 1553.61 521.6 1553.61 557V770H1472.01ZM1081.41 770V446H1153.41V553.4H1163.61V770H1081.41ZM1277.01 770V578.6C1277.01 557.2 1271.91 540.6 1261.71 528.8C1251.71 516.8 1237.81 510.8 1220.01 510.8C1203.01 510.8 1189.31 516.7 1178.91 528.5C1168.71 540.1 1163.61 555.2 1163.61 573.8L1129.41 549.8C1129.41 528.6 1134.71 509.6 1145.31 492.8C1155.91 476 1170.11 462.7 1187.91 452.9C1205.91 443.1 1226.01 438.2 1248.21 438.2C1273.61 438.2 1294.41 443.6 1310.61 454.4C1327.01 465.2 1339.11 479.6 1346.91 497.6C1354.71 515.6 1358.61 535.4 1358.61 557V770H1277.01ZM1610.62 401V329H1692.22V401H1610.62ZM1610.62 770V446H1692.22V770H1610.62ZM1975.96 770V617C1975.96 609.6 1975.56 600.2 1974.76 588.8C1973.96 577.2 1971.46 565.6 1967.26 554C1963.06 542.4 1956.16 532.7 1946.56 524.9C1937.16 517.1 1923.76 513.2 1906.36 513.2C1899.36 513.2 1891.86 514.3 1883.86 516.5C1875.86 518.7 1868.36 523 1861.36 529.4C1854.36 535.6 1848.56 544.8 1843.96 557C1839.56 569.2 1837.36 585.4 1837.36 605.6L1790.56 583.4C1790.56 557.8 1795.76 533.8 1806.16 511.4C1816.56 489 1832.16 470.9 1852.96 457.1C1873.96 443.3 1900.36 436.4 1932.16 436.4C1957.56 436.4 1978.26 440.7 1994.26 449.3C2010.26 457.9 2022.66 468.8 2031.46 482C2040.46 495.2 2046.86 509 2050.66 523.4C2054.46 537.6 2056.76 550.6 2057.56 562.4C2058.36 574.2 2058.76 582.8 2058.76 588.2V770H1975.96ZM1754.56 770V446H1827.16V553.4H1837.36V770H1754.56ZM2254.35 779C2221.15 779 2191.85 771.9 2166.45 757.7C2141.25 743.3 2121.45 723.6 2107.05 698.6C2092.85 673.4 2085.75 644.6 2085.75 612.2C2085.75 576.8 2092.75 546 2106.75 519.8C2120.75 493.6 2140.05 473.3 2164.65 458.9C2189.25 444.3 2217.55 437 2249.55 437C2283.55 437 2312.45 445 2336.25 461C2360.05 477 2377.65 499.5 2389.05 528.5C2400.45 557.5 2404.45 591.6 2401.05 630.8H2320.35V600.8C2320.35 567.8 2315.05 544.1 2304.45 529.7C2294.05 515.1 2276.95 507.8 2253.15 507.8C2225.35 507.8 2204.85 516.3 2191.65 533.3C2178.65 550.1 2172.15 575 2172.15 608C2172.15 638.2 2178.65 661.6 2191.65 678.2C2204.85 694.6 2224.15 702.8 2249.55 702.8C2265.55 702.8 2279.25 699.3 2290.65 692.3C2302.05 685.3 2310.75 675.2 2316.75 662L2398.35 685.4C2386.15 715 2366.85 738 2340.45 754.4C2314.25 770.8 2285.55 779 2254.35 779ZM2146.95 630.8V570.2H2361.75V630.8H2146.95ZM2517.67 770L2400.07 446H2481.67L2558.47 670.4L2635.27 446H2716.87L2599.27 770H2517.67ZM2882.96 779C2849.76 779 2820.46 771.9 2795.06 757.7C2769.86 743.3 2750.06 723.6 2735.66 698.6C2721.46 673.4 2714.36 644.6 2714.36 612.2C2714.36 576.8 2721.36 546 2735.36 519.8C2749.36 493.6 2768.66 473.3 2793.26 458.9C2817.86 444.3 2846.16 437 2878.16 437C2912.16 437 2941.06 445 2964.86 461C2988.66 477 3006.26 499.5 3017.66 528.5C3029.06 557.5 3033.06 591.6 3029.66 630.8H2948.96V600.8C2948.96 567.8 2943.66 544.1 2933.06 529.7C2922.66 515.1 2905.56 507.8 2881.76 507.8C2853.96 507.8 2833.46 516.3 2820.26 533.3C2807.26 550.1 2800.76 575 2800.76 608C2800.76 638.2 2807.26 661.6 2820.26 678.2C2833.46 694.6 2852.76 702.8 2878.16 702.8C2894.16 702.8 2907.86 699.3 2919.26 692.3C2930.66 685.3 2939.36 675.2 2945.36 662L3026.96 685.4C3014.76 715 2995.46 738 2969.06 754.4C2942.86 770.8 2914.16 779 2882.96 779ZM2775.56 630.8V570.2H2990.36V630.8H2775.56ZM3070.4 770V446H3142.4V525.2L3134.6 515C3138.8 503.8 3144.4 493.6 3151.4 484.4C3158.4 475.2 3167 467.6 3177.2 461.6C3185 456.8 3193.5 453.1 3202.7 450.5C3211.9 447.7 3221.4 446 3231.2 445.4C3241 444.6 3250.8 444.8 3260.6 446V522.2C3251.6 519.4 3241.1 518.5 3229.1 519.5C3217.3 520.3 3206.6 523 3197 527.6C3187.4 532 3179.3 537.9 3172.7 545.3C3166.1 552.5 3161.1 561.1 3157.7 571.1C3154.3 580.9 3152.6 592 3152.6 604.4V770H3070.4Z" fill="#D47070"/>
<path d="M564 338H996V770H564V338Z" fill="#58525B"/>
<path d="M618 392H942V662H618V392Z" fill="#2D343E"/>
<path d="M942 716H996V770H942V716Z" fill="#D47070"/>
<path d="M564 716H726V770H564V716Z" fill="#68616C"/>
<path d="M780 716H834V770H780V716Z" fill="#68616C"/>
<path d="M834 500H888V554H834V500Z" fill="#57F870"/>
<path d="M672 500H726V554H672V500Z" fill="#57F870"/>
</svg>
