<svg width="3840" height="1080" viewBox="0 0 3840 1080" fill="none" xmlns="http://www.w3.org/2000/svg">
<rect width="3840" height="1080" fill="#FAECEC"/>
<path d="M1488.16 762V576.683C1488.16 555.963 1483.22 539.89 1473.35 528.465C1463.67 516.847 1450.21 511.037 1432.97 511.037C1421.94 511.037 1412.35 513.652 1404.22 518.88C1396.08 523.915 1389.69 531.08 1385.05 540.375C1380.59 549.476 1378.37 560.029 1378.37 572.035L1345.25 549.96C1345.25 528.465 1350.29 509.488 1360.36 493.029C1370.62 476.569 1384.27 463.788 1401.31 454.687C1418.55 445.392 1437.62 440.745 1458.53 440.745C1494.36 440.745 1521.37 451.395 1539.57 472.696C1557.97 493.803 1567.17 521.494 1567.17 555.769V762H1488.16ZM1109.97 762V448.297H1179.69V552.284H1189.56V762H1109.97ZM1299.36 762V576.683C1299.36 555.963 1294.42 539.89 1284.54 528.465C1274.86 516.847 1261.4 511.037 1244.17 511.037C1227.71 511.037 1214.45 516.75 1204.38 528.175C1194.5 539.406 1189.56 554.026 1189.56 572.035L1156.45 548.798C1156.45 528.272 1161.58 509.876 1171.84 493.61C1182.11 477.343 1195.86 464.466 1213.09 454.978C1230.52 445.489 1249.98 440.745 1271.47 440.745C1296.07 440.745 1316.21 445.973 1331.89 456.43C1347.77 466.887 1359.49 480.829 1367.04 498.257C1374.59 515.685 1378.37 534.856 1378.37 555.769V762H1299.36ZM1622.37 404.727V335.015H1701.37V404.727H1622.37ZM1622.37 762V448.297H1701.37V762H1622.37ZM1976.09 762V613.862C1976.09 606.698 1975.71 597.596 1974.93 586.559C1974.16 575.327 1971.74 564.096 1967.67 552.865C1963.6 541.633 1956.92 532.241 1947.63 524.689C1938.53 517.137 1925.55 513.361 1908.71 513.361C1901.93 513.361 1894.67 514.426 1886.92 516.556C1879.18 518.686 1871.91 522.85 1865.14 529.046C1858.36 535.049 1852.74 543.957 1848.29 555.769C1844.03 567.582 1841.9 583.267 1841.9 602.825L1796.59 581.33C1796.59 556.544 1801.62 533.307 1811.69 511.618C1821.76 489.93 1836.86 472.406 1857 459.044C1877.34 445.683 1902.9 439.002 1933.69 439.002C1958.28 439.002 1978.32 443.165 1993.81 451.492C2009.3 459.819 2021.31 470.372 2029.83 483.153C2038.54 495.933 2044.74 509.295 2048.42 523.237C2052.1 536.986 2054.33 549.573 2055.1 560.998C2055.88 572.423 2056.26 580.749 2056.26 585.978V762H1976.09ZM1761.73 762V448.297H1832.02V552.284H1841.9V762H1761.73ZM2245.63 770.714C2213.49 770.714 2185.12 763.84 2160.53 750.091C2136.13 736.149 2116.96 717.075 2103.01 692.869C2089.27 668.47 2082.39 640.585 2082.39 609.215C2082.39 574.94 2089.17 545.119 2102.72 519.751C2116.28 494.384 2134.97 474.729 2158.78 460.787C2182.6 446.651 2210 439.583 2240.99 439.583C2273.9 439.583 2301.89 447.329 2324.93 462.82C2347.97 478.312 2365.01 500.097 2376.05 528.175C2387.09 556.253 2390.96 589.27 2387.67 627.224H2309.54V598.177C2309.54 566.226 2304.4 543.279 2294.14 529.337C2284.07 515.201 2267.51 508.133 2244.47 508.133C2217.55 508.133 2197.71 516.363 2184.93 532.822C2172.34 549.089 2166.05 573.197 2166.05 605.148C2166.05 634.389 2172.34 657.045 2184.93 673.117C2197.71 688.996 2216.39 696.936 2240.99 696.936C2256.48 696.936 2269.74 693.547 2280.78 686.769C2291.82 679.992 2300.24 670.213 2306.05 657.432L2385.06 680.089C2373.24 708.748 2354.56 731.017 2329 746.896C2303.63 762.775 2275.84 770.714 2245.63 770.714ZM2141.65 627.224V568.55H2349.62V627.224H2141.65ZM2500.58 762L2386.72 448.297H2465.73L2540.09 665.565L2614.45 448.297H2693.45L2579.59 762H2500.58ZM2854.27 770.714C2822.13 770.714 2793.76 763.84 2769.17 750.091C2744.77 736.149 2725.6 717.075 2711.65 692.869C2697.9 668.47 2691.03 640.585 2691.03 609.215C2691.03 574.94 2697.81 545.119 2711.36 519.751C2724.92 494.384 2743.6 474.729 2767.42 460.787C2791.24 446.651 2818.64 439.583 2849.62 439.583C2882.54 439.583 2910.53 447.329 2933.57 462.82C2956.61 478.312 2973.65 500.097 2984.69 528.175C2995.73 556.253 2999.6 589.27 2996.31 627.224H2918.17V598.177C2918.17 566.226 2913.04 543.279 2902.78 529.337C2892.71 515.201 2876.15 508.133 2853.11 508.133C2826.19 508.133 2806.35 516.363 2793.56 532.822C2780.98 549.089 2774.68 573.197 2774.68 605.148C2774.68 634.389 2780.98 657.045 2793.56 673.117C2806.35 688.996 2825.03 696.936 2849.62 696.936C2865.12 696.936 2878.38 693.547 2889.42 686.769C2900.46 679.992 2908.88 670.213 2914.69 657.432L2993.7 680.089C2981.88 708.748 2963.2 731.017 2937.64 746.896C2912.27 762.775 2884.48 770.714 2854.27 770.714ZM2750.29 627.224V568.55H2958.26V627.224H2750.29ZM3035.75 762V448.297H3105.47V524.98L3097.91 515.104C3101.98 504.26 3107.4 494.384 3114.18 485.477C3120.96 476.569 3129.28 469.21 3139.16 463.401C3146.71 458.754 3154.94 455.171 3163.85 452.654C3172.76 449.943 3181.96 448.297 3191.44 447.716C3200.93 446.941 3210.42 447.135 3219.91 448.297V522.075C3211.2 519.364 3201.03 518.493 3189.41 519.461C3177.99 520.236 3167.63 522.85 3158.33 527.304C3149.04 531.564 3141.19 537.276 3134.8 544.441C3128.41 551.412 3123.57 559.739 3120.28 569.421C3116.99 578.91 3115.34 589.657 3115.34 601.663V762H3035.75Z" fill="#D47070"/>
<path d="M605 344.002H1023.27V762.273H605V344.002Z" fill="#58525B"/>
<path d="M657.284 396.286H970.987V657.706H657.284V396.286Z" fill="#2D343E"/>
<path d="M814.135 709.989H866.419V762.273H814.135V709.989Z" fill="#68616C"/>
<path d="M709.568 500.854H761.852V553.138H709.568V500.854Z" fill="#57F870"/>
<path d="M970.987 709.989H1023.27V762.273H970.987V709.989Z" fill="#D47070"/>
<path d="M605 709.989H761.852V762.273H605V709.989Z" fill="#68616C"/>
<path d="M709.568 500.854H761.852V553.138H709.568V500.854Z" fill="#57F870"/>
<path d="M866.419 500.854H918.703V553.138H866.419V500.854Z" fill="#57F870"/>
</svg>
